<svg width="24" height="24" xmlns="http://www.w3.org/2000/svg">

 <g>
  <title>background</title>
  <rect fill="none" id="canvas_background" height="402" width="582" y="-1" x="-1"/>
 </g>
 <g>
  <title>Layer 1</title>
  <path fill="#f50076" id="svg_1" d="m10.586,6.586c-0.781,0.779 -0.781,2.047 0,2.828l1.586,1.586l-7.244,0c-1.104,0 -2,0.895 -2,2c0,1.104 0.896,2 2,2l7.244,0l-1.586,1.586c-0.781,0.779 -0.781,2.047 0,2.828c0.391,0.391 0.902,0.586 1.414,0.586s1.023,-0.195 1.414,-0.586l6.414,-6.414l-6.414,-6.414c-0.781,-0.781 -2.047,-0.781 -2.828,0z"/>
 </g>
</svg>